<svg width="20" height="20" viewBox="0 0 29 29" fill="none" xmlns="http://www.w3.org/2000/svg">
    <path fill-rule="evenodd" clip-rule="evenodd"
          d="M21.7965 9.28488L14.6457 5.17249C14.4489 5.05949 14.2257 5 13.9985 5C13.7714 5 13.5482 5.05949 13.3514 5.17249L11.8881 6.0053L20.3282 10.8689V18.1409L18.2186 19.3535L11.8881 15.7175V14.5515C12.1213 14.3356 12.2832 14.0545 12.3525 13.7452C12.4218 13.4359 12.3952 13.1129 12.2763 12.8189C12.1573 12.525 11.9516 12.2738 11.6862 12.0985C11.4208 11.9232 11.1083 11.832 10.7897 11.8371C10.4712 11.8421 10.1617 11.9431 9.90208 12.1266C9.64243 12.3102 9.44481 12.5678 9.33529 12.8654C9.22578 13.163 9.20951 13.4866 9.28864 13.7936C9.36777 14.1005 9.53858 14.3764 9.77853 14.5848V16.93L18.2202 21.7786L21.7965 19.7249C21.9933 19.6121 22.1568 19.4497 22.2705 19.2541C22.3842 19.0585 22.4442 18.8366 22.4444 18.6106V10.3992C22.4442 10.1732 22.3842 9.95128 22.2705 9.75568C22.1568 9.56009 21.9933 9.39772 21.7965 9.28488V9.28488Z"
          fill="#CED0D6"/>
    <path fill-rule="evenodd" clip-rule="evenodd"
          d="M18.2199 14.3951V12.0799L9.77652 7.23132L6.20194 9.28335C6.00532 9.39667 5.84211 9.55942 5.72868 9.75529C5.61525 9.95116 5.55558 10.1733 5.55566 10.3993V18.6108C5.55554 18.8366 5.6152 19.0585 5.72865 19.2541C5.8421 19.4497 6.00534 19.6121 6.20194 19.725L13.3511 23.8274C13.5478 23.9404 13.771 23.9999 13.9982 23.9999C14.2254 23.9999 14.4486 23.9404 14.6453 23.8274L16.1036 22.9946L7.66693 18.1411V10.869L9.77652 9.65645L16.1036 13.2925V14.4168C15.8698 14.6313 15.7067 14.9112 15.636 15.2198C15.5653 15.5283 15.5902 15.8509 15.7075 16.145C15.8248 16.4392 16.0289 16.6911 16.293 16.8675C16.557 17.044 16.8686 17.1367 17.1867 17.1334C17.5048 17.1301 17.8144 17.0311 18.0747 16.8492C18.3351 16.6674 18.5339 16.4114 18.6451 16.1149C18.7562 15.8184 18.7745 15.4953 18.6974 15.1883C18.6203 14.8813 18.4515 14.6048 18.2132 14.3951H18.2199Z"
          fill="#CED0D6"/>
</svg>
