<svg width="13" height="13" viewBox="0 0 16 16" fill="none" xmlns="http://www.w3.org/2000/svg">
    <path fill-rule="evenodd" clip-rule="evenodd"
          d="M13.5396 4.04458L8.45868 1.12256C8.31885 1.04227 8.16026 1 7.99882 1C7.83746 1 7.67887 1.04227 7.53903 1.12256L6.4993 1.71431L12.4963 5.17009V10.3371L10.9974 11.1987L6.4993 8.61522V7.78673C6.66499 7.63332 6.78003 7.43359 6.82927 7.21382C6.87851 6.99405 6.85961 6.76454 6.77513 6.55565C6.69057 6.34682 6.54442 6.16833 6.35584 6.04377C6.16726 5.91921 5.94522 5.85441 5.71884 5.85804C5.49253 5.86159 5.27262 5.93335 5.08815 6.06374C4.90366 6.19419 4.76324 6.37723 4.68542 6.58869C4.60761 6.80014 4.59605 7.03007 4.65227 7.24821C4.7085 7.46627 4.82987 7.66231 5.00036 7.81039V9.47675L10.9985 12.9219L13.5396 11.4626C13.6795 11.3825 13.7956 11.2671 13.8764 11.1281C13.9572 10.9891 13.9998 10.8315 14 10.6709V4.83635C13.9998 4.67577 13.9572 4.51809 13.8764 4.3791C13.7956 4.24013 13.6795 4.12476 13.5396 4.04458Z"
          fill="#6C707E"/>
    <path fill-rule="evenodd" clip-rule="evenodd"
          d="M10.9985 7.67609V6.03105L4.99909 2.58594L2.45921 4.04399C2.3195 4.12451 2.20353 4.24015 2.12294 4.37932C2.04234 4.51849 1.99994 4.67633 2 4.83692V10.6715C1.99991 10.832 2.04231 10.9896 2.12292 11.1286C2.20353 11.2676 2.31952 11.383 2.45921 11.4632L7.53898 14.3781C7.67874 14.4584 7.83733 14.5007 7.99877 14.5007C8.1602 14.5007 8.31879 14.4584 8.45856 14.3781L9.49474 13.7864L3.50014 10.3378V5.17066L4.99909 4.30909L9.49474 6.89265V7.69151C9.32861 7.84392 9.21273 8.0428 9.16249 8.26208C9.11226 8.48128 9.12995 8.7105 9.21329 8.91947C9.29664 9.12851 9.44166 9.3075 9.62932 9.43283C9.8169 9.55825 10.0383 9.62411 10.2643 9.62177C10.4903 9.61942 10.7103 9.54908 10.8953 9.41983C11.0803 9.29065 11.2216 9.10876 11.3006 8.89808C11.3795 8.68741 11.3925 8.45783 11.3377 8.23969C11.283 8.02156 11.163 7.82509 10.9937 7.67609H10.9985Z"
          fill="#6C707E"/>
</svg>
