<svg width="16" height="16" viewBox="0 0 28 28" fill="none" xmlns="http://www.w3.org/2000/svg">
<path fill-rule="evenodd" clip-rule="evenodd" d="M7.77774 5.25H20.2222C21.9404 5.25 23.3333 6.62113 23.3333 8.3125V10.3542C23.3333 12.0455 21.9404 13.4167 20.2222 13.4167H7.77774C6.05952 13.4167 4.66663 12.0455 4.66663 10.3542V8.3125C4.66663 6.62113 6.05952 5.25 7.77774 5.25ZM9.64359 9.33366C9.64359 8.88262 9.27216 8.51699 8.81396 8.51699C8.35577 8.51699 7.98433 8.88262 7.98433 9.33366V9.34387C7.98433 9.7949 8.35577 10.1605 8.81396 10.1605C9.27216 10.1605 9.64359 9.7949 9.64359 9.34387V9.33366ZM12.9621 8.51699C12.5039 8.51699 12.1325 8.88262 12.1325 9.33366C12.1325 9.78469 12.5039 10.1503 12.9621 10.1503H19.1843C19.6425 10.1503 20.014 9.78469 20.014 9.33366C20.014 8.88262 19.6425 8.51699 19.1843 8.51699H12.9621Z" fill="#AEACFF"/>
<path fill-rule="evenodd" clip-rule="evenodd" d="M7.77774 14.5833H20.2222C21.9404 14.5833 23.3333 15.9545 23.3333 17.6458V19.6875C23.3333 21.3789 21.9404 22.75 20.2222 22.75H7.77774C6.05952 22.75 4.66663 21.3789 4.66663 19.6875V17.6458C4.66663 15.9545 6.05952 14.5833 7.77774 14.5833ZM9.64359 18.667C9.64359 18.216 9.27216 17.8503 8.81396 17.8503C8.35577 17.8503 7.98433 18.216 7.98433 18.667V18.6772C7.98433 19.1282 8.35577 19.4939 8.81396 19.4939C9.27216 19.4939 9.64359 19.1282 9.64359 18.6772V18.667ZM12.9621 17.8503C12.5039 17.8503 12.1325 18.216 12.1325 18.667C12.1325 19.118 12.5039 19.4837 12.9621 19.4837H19.1843C19.6425 19.4837 20.014 19.118 20.014 18.667C20.014 18.216 19.6425 17.8503 19.1843 17.8503H12.9621Z" fill="#AEACFF"/>
</svg>
