<svg width="16" height="16" viewBox="0 0 28 28" fill="none" xmlns="http://www.w3.org/2000/svg">
<path fill-rule="evenodd" clip-rule="evenodd" d="M9.13885 4.66675C6.65434 4.66675 4.66663 6.63043 4.66663 9.02139V18.9788C4.66663 21.3697 6.65434 23.3334 9.13885 23.3334H18.8611C21.3456 23.3334 23.3333 21.3697 23.3333 18.9788V9.02139C23.3333 6.63043 21.3456 4.66675 18.8611 4.66675H9.13885ZM9.80447 11.6621C9.54932 11.407 9.54932 10.9933 9.80447 10.7382C10.0596 10.483 10.4733 10.483 10.7284 10.7382L13.5284 13.5382C13.7836 13.7933 13.7836 14.207 13.5284 14.4621L10.7284 17.2621C10.4733 17.5172 10.0596 17.5172 9.80447 17.2621C9.54933 17.007 9.54932 16.5933 9.80447 16.3382L12.1425 14.0001L9.80447 11.6621ZM14.84 15.9601C14.4791 15.9601 14.1866 16.2526 14.1866 16.6135C14.1866 16.9743 14.4791 17.2668 14.84 17.2668L18.2 17.2668C18.5608 17.2668 18.8533 16.9743 18.8533 16.6135C18.8533 16.2526 18.5608 15.9601 18.2 15.9601H14.84Z" fill="#AEACFF"/>
</svg>
