<svg width="16" height="16" viewBox="0 0 28 28" fill="none" xmlns="http://www.w3.org/2000/svg">
<path d="M14.0129 15.2202C13.3586 15.2202 12.7978 15.122 12.1436 14.8275L5.69471 11.686C5.04047 11.3915 4.66663 10.7043 4.66663 9.91894C4.66663 9.13357 5.04047 8.54454 5.69471 8.15185L12.1436 5.10852C13.3586 4.51949 14.6671 4.51949 15.7886 5.10852L22.2375 8.15185C22.8918 8.44636 23.2656 9.13357 23.2656 9.91894C23.2656 10.7043 22.8918 11.2933 22.2375 11.686L15.8821 14.7294C15.2279 15.0239 14.6671 15.2202 14.0129 15.2202Z" fill="#AEACFF"/>
<path d="M13.9266 19.4958C13.3051 19.4958 12.7724 19.4082 12.1509 19.1454L5.1786 15.9922C4.73467 15.817 4.5571 15.2915 4.73467 14.8535C5.00103 14.328 5.53375 14.1528 5.97768 14.328L12.95 17.4812C13.5715 17.744 14.3705 17.744 14.992 17.4812L22.0275 14.3279C22.4714 14.1528 23.0041 14.3279 23.1817 14.7659C23.3593 15.2039 23.1817 15.7294 22.7378 15.9046L15.7023 19.1454C15.0808 19.3206 14.5481 19.4958 13.9266 19.4958Z" fill="#AEACFF"/>
<path d="M14.0101 23.3334C13.3886 23.3334 12.8559 23.2458 12.2344 22.9831L5.26215 19.8299C4.81822 19.6547 4.64065 19.1291 4.81822 18.6912C5.08458 18.1656 5.6173 17.9904 6.06123 18.1656L13.0335 21.3188C13.655 21.5816 14.4541 21.5816 15.0756 21.3188L22.111 18.1656C22.555 17.9904 23.0877 18.1656 23.2652 18.6035C23.4428 19.0415 23.2652 19.567 22.8213 19.7422L15.7859 22.9831C15.1644 23.1582 14.6316 23.3334 14.0101 23.3334Z" fill="#AEACFF"/>
</svg>
