<svg width="16" height="16" viewBox="0 0 28 28" fill="none" xmlns="http://www.w3.org/2000/svg">
<path d="M21.2688 6.73209C18.5069 3.97814 14.028 3.97814 11.2847 6.73209C9.35318 8.64586 8.77466 11.3998 9.52114 13.827L5.13559 18.2147C4.82767 18.5321 4.61305 19.1576 4.67837 19.6057L4.9583 21.6408C5.06094 22.313 5.68612 22.9478 6.35794 23.0411L8.39209 23.3212C8.83998 23.3865 9.46515 23.1812 9.78241 22.8544L10.5475 22.0889C10.7342 21.9115 10.7342 21.6128 10.5475 21.4261L8.73734 19.615C8.46674 19.3443 8.46674 18.8962 8.73734 18.6255C9.00794 18.3547 9.45582 18.3547 9.72642 18.6255L11.546 20.4459C11.7232 20.6232 12.0218 20.6232 12.1991 20.4459L14.1773 18.4761C16.594 19.2323 19.3466 18.6441 21.2688 16.7304C24.0215 13.9764 24.0215 9.48605 21.2688 6.73209ZM16.3327 13.9951C15.0451 13.9951 14 12.9495 14 11.6612C14 10.3729 15.0451 9.32735 16.3327 9.32735C17.6204 9.32735 18.6655 10.3729 18.6655 11.6612C18.6655 12.9495 17.6204 13.9951 16.3327 13.9951Z" fill="#AEACFF"/>
</svg>
