<svg width="40" height="40" viewBox="0 0 28 28" fill="none" xmlns="http://www.w3.org/2000/svg">
<path fill-rule="evenodd" clip-rule="evenodd" d="M15.7247 2.6601C15.3654 2.30899 14.8551 2.23195 14.4239 2.47189C13.9824 2.71623 13.7381 3.22032 13.7987 3.75522C14.0615 5.99831 13.4917 8.30963 12.2771 9.93637C12.1878 10.0552 12.118 10.1279 12.0707 10.1697C11.9999 10.0585 11.8818 9.80539 11.7288 9.23637C11.5594 8.6046 11.5543 7.63825 11.5543 7.62834C11.5533 7.35209 11.3921 7.10554 11.1498 7.01089C10.9085 6.91514 10.6375 6.99218 10.4701 7.2013C10.3962 7.29375 8.66006 9.4763 8.11386 10.3744C5.97423 13.8942 5.34897 17.0244 6.20113 19.9433C7.19599 23.352 10.3089 25.6666 13.8356 25.6666C13.9434 25.6666 14.0502 25.6644 14.159 25.66C18.0677 25.5048 21.2884 22.4979 21.9896 18.3496C22.8551 13.2129 20.5132 7.34768 15.7247 2.6601Z" fill="#6392F5"/>
</svg>
