<svg width="16" height="16" viewBox="0 0 28 28" fill="none" xmlns="http://www.w3.org/2000/svg">
<path fill-rule="evenodd" clip-rule="evenodd" d="M15.7247 2.66022C15.3654 2.30912 14.8551 2.23207 14.4239 2.47201C13.9824 2.71635 13.7381 3.22044 13.7987 3.75535C14.0615 5.99843 13.4917 8.30976 12.2771 9.93649C12.1878 10.0554 12.118 10.128 12.0707 10.1698C11.9999 10.0587 11.8818 9.80551 11.7288 9.23649C11.5594 8.60473 11.5543 7.63837 11.5543 7.62847C11.5533 7.35221 11.3921 7.10567 11.1498 7.01101C10.9085 6.91526 10.6375 6.9923 10.4701 7.20142C10.3962 7.29387 8.66006 9.47643 8.11386 10.3745C5.97423 13.8944 5.34897 17.0246 6.20113 19.9434C7.19599 23.3521 10.3089 25.6667 13.8356 25.6667C13.9434 25.6667 14.0502 25.6645 14.159 25.6601C18.0677 25.5049 21.2884 22.498 21.9896 18.3497C22.8551 13.2131 20.5132 7.34781 15.7247 2.66022Z" fill="#C04644"/>
</svg>
